<svg width="11" height="10" viewBox="0 0 11 10" fill="none" xmlns="http://www.w3.org/2000/svg">
<path d="M7.96992 4.75402C7.58036 4.68992 7.21481 4.50956 6.91401 4.23304C6.6132 3.95652 6.38894 3.59469 6.2662 3.18785C6.14347 2.78101 6.12707 2.34513 6.21885 1.92876C6.31062 1.51239 6.50696 1.13188 6.786 0.829607C7.61773 -0.0741895 9.21804 -0.347231 10.0498 0.556566C10.1046 0.616182 10.1553 0.680142 10.2015 0.747919L7.96992 4.75402Z" fill="url(#paint0_linear_1_392)"/>
<path d="M9.79858 4.10276C9.56241 4.35995 9.27373 4.55297 8.956 4.66613C8.63827 4.7793 8.30046 4.80941 7.97001 4.75403C7.83828 4.33156 7.79313 3.88291 7.8377 3.43949C7.88227 2.99607 8.01548 2.56859 8.22803 2.18698C8.44057 1.80537 8.72729 1.47884 9.06814 1.23027C9.40898 0.981693 9.7957 0.81707 10.2012 0.747925C10.8473 1.68828 10.575 3.25939 9.79858 4.10276Z" fill="url(#paint1_linear_1_392)"/>
<path d="M2.59201 4.75402C2.98158 4.68992 3.34712 4.50956 3.64793 4.23304C3.94873 3.95652 4.173 3.59469 4.29573 3.18785C4.41847 2.78101 4.43486 2.34513 4.34309 1.92876C4.25131 1.51239 4.05497 1.13188 3.77593 0.829607C2.9442 -0.0741895 1.3439 -0.347231 0.51251 0.556566C0.457443 0.616082 0.406608 0.68005 0.360443 0.747919L2.59201 4.75402Z" fill="url(#paint2_linear_1_392)"/>
<path d="M0.763772 4.10275C0.999875 4.35994 1.28849 4.55296 1.60617 4.66612C1.92384 4.77929 2.2616 4.8094 2.592 4.75402C2.69118 4.43704 2.74163 4.10446 2.74132 3.76966C2.74116 3.04029 2.50115 2.33499 2.06458 1.78098C1.62801 1.22697 1.02362 0.86072 0.360435 0.748291C-0.283531 1.68827 -0.0130378 3.25938 0.763772 4.10275Z" fill="url(#paint3_linear_1_392)"/>
<path d="M1.59907 2.02502C1.53397 1.95461 1.45574 1.90016 1.36965 1.86536C1.28355 1.83057 1.19159 1.81622 1.09997 1.82329C1.00834 1.83036 0.919172 1.85868 0.838466 1.90635C0.757759 1.95401 0.68739 2.01992 0.632096 2.09962C0.445306 2.36634 0.278079 2.64858 0.131958 2.94374C0.254953 3.37892 0.471313 3.77613 0.763223 4.10267C0.930695 4.28502 1.12503 4.43567 1.33819 4.54842L1.76624 2.68711C1.79329 2.57046 1.79211 2.44818 1.76281 2.33217C1.73352 2.21616 1.67712 2.11035 1.59907 2.02502Z" fill="#FD748D"/>
<path d="M0.535876 6.59211C0.509397 6.37397 0.49621 6.15416 0.496401 5.93413C0.50709 4.56285 1.01589 3.25169 1.91202 2.28613C2.80814 1.32057 4.01903 0.778809 5.28101 0.778809C6.54299 0.778809 7.75387 1.32057 8.65 2.28613C9.54612 3.25169 10.0549 4.56285 10.0656 5.93413C10.066 6.15429 10.0528 6.37423 10.0261 6.59248L0.535876 6.59211Z" fill="url(#paint4_linear_1_392)"/>
<path d="M10.0264 6.5925C9.72295 9.04577 7.71382 9.99992 5.2811 9.99992C2.84838 9.99992 0.8389 9.04577 0.535797 6.59213C1.77155 5.30823 3.00731 5.76069 4.31172 3.08212C4.40482 2.89081 4.54461 2.73104 4.71574 2.62034C4.84364 2.53725 4.98573 2.48321 5.1334 2.4615C5.28107 2.43978 5.43127 2.45084 5.57489 2.49401C5.71852 2.53718 5.85259 2.61155 5.96901 2.71264C6.08543 2.81373 6.18176 2.93942 6.2522 3.08212C7.5542 5.76069 8.79236 5.30823 10.0281 6.5925H10.0264Z" fill="url(#paint5_linear_1_392)"/>
<path d="M2.21061 6.01856C2.49877 6.01856 2.73237 5.81449 2.73237 5.56275C2.73237 5.31101 2.49877 5.10693 2.21061 5.10693C1.92244 5.10693 1.68884 5.31101 1.68884 5.56275C1.68884 5.81449 1.92244 6.01856 2.21061 6.01856Z" fill="#FFAECF"/>
<path d="M8.35129 6.01856C8.63945 6.01856 8.87305 5.81449 8.87305 5.56275C8.87305 5.31101 8.63945 5.10693 8.35129 5.10693C8.06313 5.10693 7.82953 5.31101 7.82953 5.56275C7.82953 5.81449 8.06313 6.01856 8.35129 6.01856Z" fill="#FFAECF"/>
<path d="M3.10516 5.5627C3.67655 5.5627 4.13976 5.05936 4.13976 4.43846C4.13976 3.81755 3.67655 3.31421 3.10516 3.31421C2.53376 3.31421 2.07056 3.81755 2.07056 4.43846C2.07056 5.05936 2.53376 5.5627 3.10516 5.5627Z" fill="white"/>
<path d="M7.45678 5.5627C8.02818 5.5627 8.49138 5.05936 8.49138 4.43846C8.49138 3.81755 8.02818 3.31421 7.45678 3.31421C6.88539 3.31421 6.42218 3.81755 6.42218 4.43846C6.42218 5.05936 6.88539 5.5627 7.45678 5.5627Z" fill="white"/>
<path d="M3.10516 5.10878C3.44584 5.10878 3.72201 4.80868 3.72201 4.43848C3.72201 4.06829 3.44584 3.76819 3.10516 3.76819C2.76448 3.76819 2.48831 4.06829 2.48831 4.43848C2.48831 4.80868 2.76448 5.10878 3.10516 5.10878Z" fill="#383842"/>
<path d="M7.45672 5.10878C7.7974 5.10878 8.07357 4.80868 8.07357 4.43848C8.07357 4.06829 7.7974 3.76819 7.45672 3.76819C7.11605 3.76819 6.83987 4.06829 6.83987 4.43848C6.83987 4.80868 7.11605 5.10878 7.45672 5.10878Z" fill="#383842"/>
<path d="M5.62438 5.92109C5.50184 5.92002 5.38235 5.87938 5.28112 5.80434C5.17997 5.87959 5.06043 5.92025 4.93785 5.92109C4.84848 5.91933 4.76042 5.89744 4.67924 5.85679C4.59805 5.81615 4.52551 5.75764 4.46621 5.68497C4.43612 5.6478 4.42056 5.59934 4.42282 5.54989C4.42509 5.50045 4.445 5.45391 4.47834 5.42016C4.51167 5.38642 4.5558 5.36812 4.60135 5.36916C4.6469 5.3702 4.69028 5.39049 4.72228 5.42573C4.74772 5.4615 4.78036 5.49046 4.8177 5.51039C4.85504 5.53031 4.89608 5.54067 4.93768 5.54067C4.97928 5.54067 5.02032 5.53031 5.05766 5.51039C5.095 5.49046 5.12764 5.4615 5.15308 5.42573C5.16946 5.40664 5.18928 5.39142 5.21131 5.38101C5.23333 5.3706 5.2571 5.36523 5.28112 5.36523C5.30514 5.36523 5.3289 5.3706 5.35093 5.38101C5.37295 5.39142 5.39277 5.40664 5.40915 5.42573C5.43459 5.4615 5.46723 5.49046 5.50457 5.51039C5.54191 5.53031 5.58295 5.54067 5.62455 5.54067C5.66615 5.54067 5.7072 5.53031 5.74454 5.51039C5.78188 5.49046 5.81452 5.4615 5.83995 5.42573C5.87195 5.39049 5.91533 5.3702 5.96088 5.36916C6.00643 5.36812 6.05056 5.38642 6.08389 5.42016C6.11723 5.45391 6.13714 5.50045 6.13941 5.54989C6.14167 5.59934 6.12611 5.6478 6.09603 5.68497C6.03679 5.75763 5.96431 5.81614 5.88318 5.85678C5.80205 5.89743 5.71404 5.91932 5.62472 5.92109H5.62438Z" fill="#383842"/>
<defs>
<linearGradient id="paint0_linear_1_392" x1="661.964" y1="1134.12" x2="1128.24" y2="1134.12" gradientUnits="userSpaceOnUse">
<stop stop-color="#4F4C5F"/>
<stop offset="1" stop-color="#77718A"/>
</linearGradient>
<linearGradient id="paint1_linear_1_392" x1="7.82148" y1="2.76375" x2="10.5627" y2="2.76375" gradientUnits="userSpaceOnUse">
<stop stop-color="#FD869C"/>
<stop offset="1" stop-color="#FDB0BF"/>
</linearGradient>
<linearGradient id="paint2_linear_1_392" x1="-13.5008" y1="1134.12" x2="452.771" y2="1134.12" gradientUnits="userSpaceOnUse">
<stop stop-color="#77718A"/>
<stop offset="1" stop-color="#4F4C5F"/>
</linearGradient>
<linearGradient id="paint3_linear_1_392" x1="-0.00015161" y1="2.76374" x2="2.74137" y2="2.76374" gradientUnits="userSpaceOnUse">
<stop stop-color="#FDB0BF"/>
<stop offset="1" stop-color="#FD869C"/>
</linearGradient>
<linearGradient id="paint4_linear_1_392" x1="5.28125" y1="6.5923" x2="5.28125" y2="0.734614" gradientUnits="userSpaceOnUse">
<stop stop-color="#FDB58A"/>
<stop offset="1" stop-color="#3C2313"/>
</linearGradient>
<linearGradient id="paint5_linear_1_392" x1="5.28117" y1="10.0002" x2="5.28117" y2="2.45016" gradientUnits="userSpaceOnUse">
<stop stop-color="#FFF5E3"/>
<stop offset="1" stop-color="#F0A83E"/>
</linearGradient>
</defs>
</svg>
